Coordinates
version=1
nRows=10
nColumns=40
inDegrees=yes

Units are S.I. units (second, meters, Newtons, ...)
Angles are in degrees.

endheader
time	pelvis_tilt	pelvis_list	pelvis_rotation	pelvis_tx	pelvis_ty	pelvis_tz	hip_flexion_r	hip_adduction_r	hip_rotation_r	knee_angle_r	knee_angle_r_beta	ankle_angle_r	subtalar_angle_r	mtp_angle_r	hip_flexion_l	hip_adduction_l	hip_rotation_l	knee_angle_l	knee_angle_l_beta	ankle_angle_l	subtalar_angle_l	mtp_angle_l	lumbar_extension	lumbar_bending	lumbar_rotation	arm_flex_r	arm_add_r	arm_rot_r	elbow_flex_r	pro_sup_r	wrist_flex_r	wrist_dev_r	arm_flex_l	arm_add_l	arm_rot_l	elbow_flex_l	pro_sup_l	wrist_flex_l	wrist_dev_l
     43.01142857	     -9.40293423	     -4.97515111	     -5.37594162	      0.95974782	      0.92925610	      0.41159230	     39.94170261	     -8.21832700	     -7.64463903	     59.73174619	     59.73174619	      7.58907185	    -11.90189788	     -0.27744670	     12.40002464	     -5.50246929	    -10.33475732	     20.13863666	     20.13863666	     18.11712820	     -0.72238941	     -0.25675236	    -10.88803591	      3.26568076	      3.31525401	      3.47897877	    -14.16770231	     -1.17755402	     31.80107200	     46.78825526	      0.00000000	      0.00000000	     26.22593180	    -18.67520916	     -1.80332523	     61.23879275	     47.09660400	      0.00000000	      0.00000000
     43.02285714	     -9.49288955	     -4.79082103	     -5.32943986	      0.95901782	      0.92876870	      0.41181636	     40.16346209	     -8.15891495	     -7.72950626	     57.19693883	     57.19693883	      7.49577236	    -10.99222982	     -0.23911281	     11.71940237	     -5.26948482	    -10.52673384	     19.61964004	     19.61964004	     18.28031671	     -0.24898896	     -0.49155787	    -10.94263653	      3.13596257	      3.58449634	      1.46021980	    -14.40225197	     -1.18766762	     30.06302877	     46.83494803	      0.00000000	      0.00000000	     27.32488272	    -18.55099109	     -2.34424893	     63.31288488	     47.17876825	      0.00000000	      0.00000000
     43.03428571	     -9.61696094	     -4.54398009	     -5.26214886	      0.95835692	      0.92804857	      0.41220752	     40.31278407	     -8.05743292	     -7.70453915	     54.42407243	     54.42407243	      7.13503710	    -10.34994446	     -0.94107204	     11.11694289	     -5.01224049	    -10.81681733	     19.16284268	     19.16284268	     18.20351874	      0.33953051	     -1.53337111	    -10.96333154	      2.88398007	      2.76208257	      0.78922166	    -14.14028387	     -1.80054110	     26.83042161	     46.96173390	      0.00000000	      0.00000000	     26.94167477	    -19.19210073	     -4.21102272	     67.69545770	     47.39537311	      0.00000000	      0.00000000
     43.04571429	     -9.76925131	     -4.34104874	     -5.14606137	      0.95770588	      0.92738880	      0.41260609	     40.36601007	     -7.93355633	     -7.80970086	     51.46629244	     51.46629244	      6.91025603	     -9.46671919	     -0.62800511	     10.55024191	     -4.77082137	    -10.90296524	     18.71723818	     18.71723818	     18.36115285	      0.76327000	     -1.63838899	    -10.93204851	      2.73937400	      2.85658905	     -1.27536446	    -14.31777834	     -1.80447073	     25.82592944	     46.97974854	      0.00000000	      0.00000000	     27.98766815	    -19.10116616	     -4.57244103	     69.25278300	     47.45500734	      0.00000000	      0.00000000
     43.05714286	     -9.89506419	     -4.03570260	     -5.05243681	      0.95720174	      0.92653568	      0.41323919	     40.32952567	     -7.83411433	     -7.82588606	     48.39792900	     48.39792900	      6.65542898	     -8.58837106	     -0.46033639	      9.95761980	     -4.47786086	    -11.22792210	     18.30554676	     18.30554676	     18.51959778	      1.51562869	     -1.98666315	    -11.01243113	      2.40359750	      3.04973524	     -3.41529853	    -14.38230280	     -1.93772968	     25.10731759	     46.98787094	      0.00000000	      0.00000000	     28.70351610	    -18.94053225	     -5.19561751	     72.14979465	     47.55626589	      0.00000000	      0.00000000
     43.06857143	    -10.07952338	     -3.78989098	     -4.90955220	      0.95683654	      0.92558980	      0.41396984	     40.17672674	     -7.65358078	     -7.96445662	     45.08893608	     45.08893608	      6.19721416	     -7.78022725	     -0.31975286	      9.45153256	     -4.27501039	    -11.55600582	     17.95363950	     17.95363950	     18.66066032	      2.34116311	     -2.43671888	    -10.97998975	      2.14447487	      2.70266566	     -5.37236280	    -14.43050668	     -2.19462288	     25.09897208	     46.96831855	      0.00000000	      0.00000000	     28.74874595	    -19.12347745	     -6.10346216	     75.42063810	     47.68528415	      0.00000000	      0.00000000
     43.08000000	    -10.26542839	     -3.57149040	     -4.71722145	      0.95658639	      0.92462787	      0.41483072	     39.88150904	     -7.42514098	     -8.21072872	     41.62953742	     41.62953742	      5.74863445	     -6.92163272	      0.24890032	      8.93652835	     -4.06272309	    -11.60781705	     17.57526438	     17.57526438	     18.83818113	      2.84958861	     -2.57783644	    -10.88163942	      1.92929674	      2.53770907	     -7.21261715	    -14.45181356	     -2.21490042	     24.64379759	     46.96584416	      0.00000000	      0.00000000	     29.37778876	    -19.12514165	     -6.44107850	     76.97583167	     47.74242613	      0.00000000	      0.00000000
     43.09142857	    -10.34247276	     -3.28625378	     -4.56527829	      0.95661381	      0.92362851	      0.41588688	     39.40536142	     -7.22244568	     -8.50031527	     38.14373192	     38.14373192	      5.25240760	     -5.90537991	      0.80253024	      8.25062503	     -3.81703335	    -11.92582387	     17.16224483	     17.16224483	     19.00455388	      3.68207521	     -2.83707741	    -10.98249971	      1.61887956	      2.63239042	     -9.28519991	    -14.43400308	     -2.30100687	     24.66611720	     46.94071814	      0.00000000	      0.00000000	     29.71925108	    -18.89881058	     -6.91756695	     79.71687544	     47.83042668	      0.00000000	      0.00000000
     43.10285714	    -10.53675803	     -3.00049833	     -4.37962081	      0.95679568	      0.92224281	      0.41712853	     38.98544717	     -6.97583603	     -8.82174969	     34.67881148	     34.67881148	      4.61560858	     -4.93195998	      1.36019294	      7.74865019	     -3.64166412	    -12.37405368	     16.88539648	     16.88539648	     19.21770814	      4.79334062	     -3.37412457	    -10.94524558	      1.24599977	      1.97733223	    -11.39781472	    -14.50151700	     -2.49984659	     26.37351088	     46.82879461	      0.00000000	      0.00000000	     29.11908561	    -19.22046600	     -8.03951109	     83.60631095	     47.98743363	      0.00000000	      0.00000000
     43.11428571	    -10.77915270	     -2.72784153	     -4.18728080	      0.95711452	      0.92077477	      0.41852084	     38.50997451	     -6.65516637	     -9.18475720	     31.19248340	     31.19248340	      3.91356341	     -3.99202989	      2.24441272	      7.24981647	     -3.40592620	    -12.41645514	     16.50866219	     16.50866219	     19.42585968	      5.24920970	     -3.49608813	    -10.71604850	      0.92816988	      1.82251446	    -13.01853018	    -14.36919081	     -2.45454392	     26.11814681	     46.81523019	      0.00000000	      0.00000000	     29.51630337	    -19.19215637	     -8.24411527	     84.80130716	     48.02821827	      0.00000000	      0.00000000
